<?xml version="1.0" encoding="UTF-8"?>
<svg id="Capa_1" xmlns="http://www.w3.org/2000/svg" version="1.1" viewBox="0 0 1340.7 195.9">
  <!-- Generator: Adobe Illustrator 29.4.0, SVG Export Plug-In . SVG Version: 2.1.0 Build 152)  -->
  <defs>
    <style>
      .st0 {
        fill: #ccfd56;
      }

      .st1 {
        fill: #1c1d20;
      }

      .st2 {
        fill: #1c1d20;
      }
    </style>
  </defs>
  <path class="st0" d="M187.1,67.5c7.9-4.8,18-7.4,31-7.9V25.8c0-4.7-3.8-8.5-8.5-8.5H25.5c-4.7,0-8.5,3.8-8.5,8.5v146.6c0,4.7,3.8,8.5,8.5,8.5h184.1c4.7,0,8.5-3.8,8.5-8.5v-19.5c-3.6.5-7.3.7-11.3.7-35.1,0-38.9-20.8-38.9-29.7h0c0-6,1.5-11.4,4.4-15.9h-4.3l1.5-12.3c1.5-12.3,7.6-22.1,17.5-28.2Z"/>
  <g>
    <rect class="st0" x="12.5" y="12.8" width="210.1" height="172.6" rx="13" ry="13"/>
    <path d="M209.6,189.9H25.5c-9.6,0-17.5-7.8-17.5-17.5V25.8c0-9.6,7.8-17.5,17.5-17.5h184.1c9.6,0,17.5,7.8,17.5,17.5v146.6c0,9.6-7.8,17.5-17.5,17.5ZM25.5,17.3c-4.7,0-8.5,3.8-8.5,8.5v146.6c0,4.7,3.8,8.5,8.5,8.5h184.1c4.7,0,8.5-3.8,8.5-8.5V25.8c0-4.7-3.8-8.5-8.5-8.5H25.5Z"/>
  </g>
  <path class="st0" d="M223.1,59.5c-15.4,0-27.2,2.6-36,8-10,6.1-16,15.8-17.5,28.2l-1.5,12.3h4.3c-2.9,4.5-4.4,9.8-4.4,15.8h0c0,9.1,3.8,29.9,38.9,29.9s23.2-2.5,32-7.3l.4,5.1h33.2v-55.3c0-16-7.8-24.5-14.4-28.7-8.1-5.3-19.3-7.8-34.9-7.8h0Z"/>
  <path class="st1" d="M82,140.4v-67.3h12.8l1.3,17c5.2-12,16.6-19.6,32.9-19.6s14,1.4,19.2,4.2c10.4,5.7,15.8,16.1,15.8,29.7v35.9h-14.7v-32.8c0-5.1-.7-9.5-2.5-13.3-3.2-7.5-10.1-11.9-22.3-11.9-18,0-27.7,10-27.7,28.3v29.7h-14.8Z"/>
  <path class="st1" d="M239.7,132.3c-7.4,6.4-18.1,10.3-32.9,10.3s-27.9-6.6-27.9-18.7h0c0-7.4,3.2-12.7,9.5-16.1,2.2-1.3,4.7-2.4,7.5-3.2,5.7-1.8,14.3-2.9,28.6-3.8,5.9-.4,10.4-.8,13.7-1.3,6.6-.9,9.1-2.8,9.1-6.6h0c0-2-.7-3.8-2.1-5.5-2.7-3.4-9.1-6-21-6-19.9,0-27.3,4.9-28.8,15.7h-15.1c2.2-18.3,16.5-26.5,42.7-26.5s38.3,7.5,38.3,25.6v44.3h-12l-1.4-18.5c-1.9,3.9-4.6,7.3-8.2,10.5ZM237.6,124c6.5-4.9,10-11,10-16.9v-2.8c-2.2,2.9-7.9,4.7-21.7,5.5-15.4.8-22.6,2.1-26.8,4.8-3.2,1.9-4.7,4.6-4.7,7.9h0c0,5.8,4.4,9.4,16.4,9.4s20.3-3.1,26.8-8Z"/>
  <path class="st1" d="M280.4,140.4v-67.3h12.6l1.3,16.1c4.6-11.2,14.3-18.7,29.1-18.7s25.2,7.7,28.9,19.7c4.6-11.9,15-19.7,29.8-19.7,21.8,0,32.2,13.3,32.2,34.1v35.8h-14.7v-33.6c0-5.1-.7-9.2-2.1-13-2.8-7.3-9-11.4-20.2-11.4s-22.3,10.1-22.3,25.5v32.5h-14.7v-34.3c0-4.5-.6-8.2-1.9-11.9-2.4-7.1-8.2-11.8-19.6-11.8s-23.7,10-23.7,26.9v31.1h-14.7Z"/>
  <path class="st1" d="M473.2,142.6c-10.3,0-18.4-1.4-24.9-4.2-13-5.9-18.7-16.4-18.7-30.8s1.9-13.6,5.3-19.2c7.1-11.2,20.7-17.9,39.5-17.9s17,1.4,23.6,4.4c13.1,5.9,20.2,16.5,20.2,31.3v5.9h-74.6c1.9,12.6,11.7,19,30.9,19s22.2-3.2,26.3-9.8h16.3c-7.3,15.8-22.3,21.3-43.7,21.3ZM443.7,101.4h60c-1.9-13.1-11.4-19.4-29-19.4s-28.5,6.6-31,19.4Z"/>
  <path class="st1" d="M608.6,142.6c-31.1,0-44.4-13.2-44.4-35.6s1.9-14.3,5.8-19.7c7.5-11.1,21.4-16.9,39-16.9,25.5,0,41.2,10.7,44.2,30.5h-15.8c-2.5-12.5-12.1-18.6-28.3-18.6s-29.9,8-29.9,24.6,9.9,23.3,29.9,23.3,25.7-6,28.4-18.6h15.7c-2.5,19.6-17.9,30.9-44.5,30.9Z"/>
  <path class="st1" d="M665.6,107c0-7.8,1.9-14.3,5.7-19.7,7.8-11.1,21.4-16.9,39-16.9s16.6,1.4,23.5,4.2c13.6,5.7,21.4,16.6,21.4,32.3s-14.8,35.6-45.4,35.6-44.2-13.2-44.2-35.6ZM740.2,107c0-16.1-11-24.6-29.7-24.6s-29.9,8-29.9,24.6,9.9,23.3,29.6,23.3,30-7.7,30-23.3Z"/>
  <path class="st1" d="M771.2,140.4v-67.3h12.6l1.3,16.1c4.6-11.2,14.3-18.7,29.1-18.7s25.2,7.7,28.9,19.7c4.6-11.9,15-19.7,29.8-19.7,21.8,0,32.2,13.3,32.2,34.1v35.8h-14.7v-33.6c0-5.1-.7-9.2-2.1-13-2.8-7.3-9-11.4-20.2-11.4s-22.3,10.1-22.3,25.5v32.5h-14.7v-34.3c0-4.5-.6-8.2-1.9-11.9-2.4-7.1-8.2-11.8-19.6-11.8s-23.7,10-23.7,26.9v31.1h-14.7Z"/>
  <path class="st1" d="M937.6,128v36.4h-14.4v-91.3h12.6l1.2,14.1c6.4-10.7,18.6-16.6,34.4-16.6s15.1,1.4,21.1,4.2c12,5.7,18.9,16.4,18.9,32.2s-1.8,14.3-5.5,19.7c-7.4,10.4-20.2,15.7-35.1,15.7s-27.5-5.1-33.1-14.4ZM996.6,107c0-15.9-10.8-24.6-29.6-24.6s-29.9,9.4-29.9,24.6,10.4,23.5,29.5,23.5,30-8.1,30-23.5Z"/>
  <path class="st1" d="M1084.6,132.3c-7.4,6.4-18.1,10.3-32.9,10.3s-27.9-6.6-27.9-18.7h0c0-7.4,3.2-12.7,9.5-16.1,2.2-1.3,4.7-2.4,7.5-3.2,5.7-1.8,14.3-2.9,28.6-3.8,5.9-.4,10.4-.8,13.7-1.3,6.6-.9,9.1-2.8,9.1-6.6h0c0-2-.7-3.8-2.1-5.5-2.7-3.4-9.1-6-21-6-19.9,0-27.3,4.9-28.8,15.7h-15.1c2.2-18.3,16.5-26.5,42.7-26.5s38.3,7.5,38.3,25.6v44.3h-12l-1.4-18.5c-1.9,3.9-4.6,7.3-8.2,10.5ZM1082.5,124c6.5-4.9,10-11,10-16.9v-2.8c-2.2,2.9-7.9,4.7-21.7,5.5-15.4.8-22.6,2.1-26.8,4.8-3.2,1.9-4.7,4.6-4.7,7.9h0c0,5.8,4.4,9.4,16.4,9.4s20.3-3.1,26.8-8Z"/>
  <path class="st1" d="M1125.3,140.4v-67.3h12.8l1.3,17c5.2-12,16.6-19.6,32.9-19.6s14,1.4,19.2,4.2c10.4,5.7,15.8,16.1,15.8,29.7v35.9h-14.7v-32.8c0-5.1-.7-9.5-2.5-13.3-3.2-7.5-10.1-11.9-22.3-11.9-18,0-27.7,10-27.7,28.3v29.7h-14.8Z"/>
  <path class="st1" d="M1216.4,157.6h7.3c7,0,11.4-.8,14.8-3.2,3.4-2.4,6.6-6.5,10.5-13.1l2.2-3.8-38.2-64.5h16.1l29.5,50.6.2.7.4-.7,29.1-50.6h15.9l-41.7,71.1c-6.8,11.7-11.5,18.1-17,21.8-5.5,3.7-12,4.5-22.6,4.5h-6.5v-12.8Z"/>
  <g>
    <circle class="st0" cx="1321.3" cy="128.2" r="9.8"/>
    <path class="st2" d="M1321.3,118.3c5.4,0,9.8,4.4,9.8,9.8s-4.4,9.8-9.8,9.8-9.8-4.4-9.8-9.8,4.4-9.8,9.8-9.8M1321.3,114.3c-7.6,0-13.8,6.2-13.8,13.8s6.2,13.8,13.8,13.8,13.8-6.2,13.8-13.8-6.2-13.8-13.8-13.8h0Z"/>
  </g>
</svg>